<?xml version="1.0" standalone="no"?>
<!DOCTYPE svg PUBLIC "-//W3C//DTD SVG 20010904//EN"
 "http://www.w3.org/TR/2001/REC-SVG-20010904/DTD/svg10.dtd">
<svg version="1.0" xmlns="http://www.w3.org/2000/svg"
 width="256.000000pt" height="256.000000pt" viewBox="0 0 256.000000 256.000000"
 preserveAspectRatio="xMidYMid meet">
<metadata>
Created by potrace 1.11, written by Peter Selinger 2001-2013
</metadata>
<g transform="translate(0.000000,256.000000) scale(0.100000,-0.100000)"
fill="#000000" stroke="none">
<path d="M0 1280 l0 -1280 1280 0 1280 0 0 1280 0 1280 -1280 0 -1280 0 0
-1280z m1076 45 c134 -335 244 -613 244 -617 0 -5 -36 -8 -79 -8 l-79 0 -15
38 c-8 20 -40 103 -72 185 l-57 147 -252 0 -251 0 -71 -182 -70 -183 -82 -3
-83 -3 14 33 c8 18 119 298 247 621 l234 588 64 -3 64 -3 244 -610z m957 591
c113 -31 192 -90 232 -171 28 -57 33 -182 10 -242 -23 -59 -67 -109 -123 -137
l-44 -22 59 -22 c115 -42 174 -129 175 -255 0 -183 -114 -309 -319 -352 -48
-10 -136 -15 -295 -15 l-228 0 0 613 c0 338 3 617 8 622 13 14 462 -2 525 -19z"/>
<path d="M721 1613 c-23 -65 -66 -181 -95 -258 l-55 -140 191 -3 c105 -1 193
-1 195 1 2 2 -19 64 -47 138 -28 74 -69 186 -92 249 -22 63 -43 119 -47 123
-5 4 -27 -45 -50 -110z"/>
<path d="M1650 1601 l0 -201 135 0 c196 0 265 20 319 93 17 24 21 43 21 112 0
82 -1 85 -34 119 -52 54 -103 67 -283 73 l-158 6 0 -202z"/>
<path d="M1650 1050 l0 -210 143 0 c172 0 244 13 305 54 61 41 87 94 86 171
-1 99 -41 151 -137 180 -37 11 -99 15 -224 15 l-173 0 0 -210z"/>
</g>
</svg>
